Coordinates
version=1
nRows=12
nColumns=33
inDegrees=yes

Units are S.I. units (second, meters, Newtons, ...)
Angles are in degrees.

endheader
time	ground_thorax_rot_x	ground_thorax_rot_y	ground_thorax_rot_z	ground_thorax_tx	ground_thorax_ty	ground_thorax_tz	clav_prot_r	clav_elev_r	scapula_abduction_r	scapula_elevation_r	scapula_upward_rot_r	scapula_winging_r	shoulder_elv_r	plane_of_elev_r	axial_rot_r	elbow_flexion_r	pro_sup_r	wrist_flex_r	wrist_dev_r	clav_prot_l	clav_elev_l	scapula_abduction_l	scapula_elevation_l	scapula_upward_rot_l	scapula_winging_l	shoulder_elv_l	plane_of_elev_l	axial_rot_l	elbow_flexion_l	pro_sup_l	wrist_flex_l	wrist_dev_l
      4.53000000	     36.22158590	     18.07596896	     22.54107384	   -275.57035148	    826.52098433	      8.86054899	     12.01906905	     36.61944758	     35.35028621	     45.00000000	    -43.28535805	   2429.48363895	  -1011.60437865	     32.78770743	     57.29345368	   1100.70745542	    104.65219232	     10.95907081	      3.50396706	      8.45580533	    -45.00000000	    -35.68141003	     45.00000000	    -45.00000000	  -2056.48125669	    268.48554654	    139.89687684	    144.16226307	    737.89811589	     94.39693691	     -1.85115306	    -13.14740309
      4.54000000	     36.22149842	     18.05405846	     22.46331371	   -275.36260954	    826.36794938	      8.90818776	     11.96324929	     36.68188429	     35.32329481	     45.00000000	    -43.51627160	   2429.65496015	  -1011.58585405	     32.85573873	     57.36883006	   1100.54488878	    104.77515759	     10.93674681	      3.60015056	      8.47887090	    -45.00000000	    -35.81029177	     45.00000000	    -45.00000000	  -2056.69180371	    268.43742192	    140.14394687	    144.04900152	    737.89064121	     94.12101817	     -1.83759335	    -13.22536520
      4.55000000	     36.22372989	     18.04115836	     22.46655331	   -275.08118558	    826.23376432	      8.96706828	     12.01700290	     36.56146048	     35.40288332	     45.00000000	    -43.37042457	   2429.52054465	  -1011.65320866	     32.80076813	     57.29454453	   1100.73153760	    104.93418256	     10.95998483	      3.55480007	      8.52147478	    -45.00000000	    -35.71325828	     45.00000000	    -45.00000000	  -2056.39983593	    268.43502821	    139.80618671	    144.11240035	    737.86089461	     93.82843420	     -1.81899028	    -13.13396981
      4.56000000	     36.15359161	     18.31166776	     22.68576301	   -274.74792488	    826.11997276	      9.03352300	     12.06210629	     36.75778011	     35.24691519	     45.00000000	    -43.49187418	   2429.58192038	  -1011.55369833	     32.77829675	     57.36801771	   1100.61877953	    105.08930596	     10.91418837	      3.63477669	      8.43376474	    -45.00000000	    -35.77351655	     45.00000000	    -45.00000000	  -2056.89500540	    268.43697117	    140.39573198	    144.19321547	    737.71825829	     93.58614012	     -1.78841584	    -13.21095407
      4.57000000	     36.26639934	     17.96504819	     22.39865840	   -274.36725509	    826.01729243	      9.10684108	     11.99494865	     36.50226431	     35.50600346	     45.00000000	    -43.25660870	   2429.49234337	  -1011.76342788	     32.81171223	     57.30710708	   1100.67142540	    105.29127879	     10.93925711	      3.62949936	      8.59165056	    -45.00000000	    -35.60250439	     45.00000000	    -45.00000000	  -2056.29065374	    268.34205867	    139.57710819	    144.18543750	    737.68152069	     93.30638018	     -1.76480500	    -13.12764662
      4.58000000	     36.20258307	     18.11910830	     22.49056879	   -273.95521180	    825.92209822	      9.18314756	     12.03895891	     36.66719858	     35.32065288	     45.00000000	    -43.30301089	   2429.53869124	  -1011.67590762	     32.85046935	     57.42912123	   1100.78441137	    105.50941778	     10.91022515	      3.63737568	      8.52325911	    -45.00000000	    -35.58753437	     45.00000000	    -45.00000000	  -2056.66852544	    268.48443480	    139.94254930	    144.31268219	    737.72608670	     93.00098227	     -1.78532307	    -13.18253167
      4.59000000	     36.18276385	     18.12793307	     22.51007974	   -273.51806442	    825.83021701	      9.25972757	     12.07432205	     36.63531726	     35.42842380	     45.00000000	    -43.28098678	   2429.50679397	  -1011.70111105	     32.73836416	     57.47368585	   1100.83429895	    105.71890525	     10.94372613	      3.63276583	      8.50014019	    -45.00000000	    -35.74850423	     45.00000000	    -45.00000000	  -2056.57744075	    268.38790424	    139.91131023	    144.42205955	    737.74668115	     92.74274073	     -1.77437684	    -13.13581361
      4.60000000	     36.20030499	     18.07205930	     22.41550960	   -273.07098585	    825.74166995	      9.33180364	     12.07482305	     36.68917628	     35.33159671	     45.00000000	    -43.36108443	   2429.63068199	  -1011.64820319	     32.86124222	     57.58709286	   1100.74623770	    105.91655852	     10.93391050	      3.67015604	      8.55486911	    -45.00000000	    -35.62815591	     45.00000000	    -45.00000000	  -2056.78161512	    268.41259671	    139.95217495	    144.45536344	    737.79388509	     92.51844270	     -1.79939686	    -13.20485430
      4.61000000	     36.17020261	     18.18329174	     22.51825391	   -272.61108371	    825.65512911	      9.39762696	     12.06766807	     36.62764749	     35.56343492	     45.00000000	    -43.19533833	   2429.40568650	  -1011.72301107	     32.59894956	     57.51726062	   1100.89072677	    106.12359554	     10.94884256	      3.65878356	      8.46968482	    -45.00000000	    -35.84308593	     45.00000000	    -45.00000000	  -2056.59674475	    268.32975978	    139.80916688	    144.60732711	    737.73131763	     92.30758589	     -1.76037063	    -13.11422784
      4.62000000	     36.13368445	     18.08613606	     22.51250529	   -272.14518666	    825.57234116	      9.45395796	     12.09082256	     36.70235391	     35.36781993	     45.00000000	    -43.16797413	   2429.50429261	  -1011.65485243	     32.86033351	     57.64374524	   1100.91506338	    106.34936764	     10.90610116	      3.67431305	      8.52986220	    -45.00000000	    -35.61380727	     45.00000000	    -45.00000000	  -2056.81247007	    268.48358442	    139.92485850	    144.67111775	    737.73856039	     92.08022160	     -1.78911531	    -13.20203673
      4.63000000	     36.11177393	     18.05746573	     22.57664450	   -271.67629977	    825.49498244	      9.49849916	     12.08595898	     36.66598459	     35.52523128	     45.00000000	    -43.17177860	   2429.50555013	  -1011.69229922	     32.72170123	     57.70005021	   1100.92116048	    106.56900036	     10.95889939	      3.67646776	      8.49426916	    -45.00000000	    -35.77125231	     45.00000000	    -45.00000000	  -2056.63165599	    268.36201875	    139.79049737	    144.81135377	    737.70173680	     91.87322096	     -1.75424301	    -13.12091925
      4.64000000	     36.11258111	     18.06140995	     22.53966979	   -271.21073179	    825.42464975	      9.52911556	     12.11994052	     36.71831062	     35.35952600	     45.00000000	    -43.21811978	   2429.57065829	  -1011.62324134	     32.86534090	     57.78731367	   1100.84000862	    106.78255370	     10.91154924	      3.71217483	      8.54013418	    -45.00000000	    -35.67822516	     45.00000000	    -45.00000000	  -2056.94785973	    268.46498069	    139.93839418	    144.83336173	    737.69283632	     91.68355267	     -1.78350408	    -13.23443863
